# xmcd CD database file generated by LOLA_Freedb v0.9beta0
# 
# Track frame offsets:
#      150
#      17913
#      36192
#      50805
#      63800
#      75002
#      90457
#      106960
# 
# Disc length: 1658 seconds
# 
# Revision: 0 
# Processed by: cddbd v1.5.2PL0 Copyright (c) Steve Scherf et al.
# Submitted via: LOLA_Freedb v0.9beta0
# 
DISCID=55067808
DTITLE=J.D. Sumner And The Stamps - Inspirational Hymns
DYEAR=1992
DGENRE=
TTITLE0=J.D. Sumner And The Stamps - In The Sweet By And By
TTITLE1=J.D. Sumner And The Stamps - In The Garden
TTITLE2=J.D. Sumner And The Stamps - Hand In Hand With Jesus
TTITLE3=J.D. Sumner And The Stamps - Victory In Jesus
TTITLE4=J.D. Sumner And The Stamps - Power In The Blood
TTITLE5=J.D. Sumner And The Stamps - Old Rugged Cross
TTITLE6=J.D. Sumner And The Stamps - 'Tis So Sweet To Trust In Jesus
TTITLE7=J.D. Sumner And The Stamps - What A Friend
EXTD=
EXTT0=
EXTT1=
EXTT2=
EXTT3=
EXTT4=
EXTT5=
EXTT6=
EXTT7=
PLAYORDER=
